<svg width="42" height="49" viewBox="0 0 42 49" fill="none" xmlns="http://www.w3.org/2000/svg">
<circle cx="21" cy="24.1735" r="18" fill="url(#paint0_linear_1484_602)"/>
<path d="M19.0241 5C19.0041 5 18.9841 4.9895 18.9641 4.97899C18.9341 4.95798 18.9141 4.90546 18.9241 4.86345L19.2098 3.74542C19.3044 3.37539 19.1799 2.9838 18.889 2.73628L18.1284 2.08894C18.0721 2.041 17.9943 1.99474 18.0005 1.92102C18.001 1.91429 18.0021 1.90765 18.0036 1.90126C18.0136 1.85924 18.0536 1.82773 18.0937 1.82773L19.1369 1.76975C19.5359 1.74757 19.8835 1.48991 20.0206 1.11452L20.3678 0.16458C20.3924 0.0970734 20.4196 0.014202 20.4903 0.00134975C20.4952 0.000468987 20.5 0 20.5049 0C20.545 0 20.585 0.0315126 20.595 0.0630252L20.9792 1.11452C21.1164 1.48991 21.4639 1.74757 21.863 1.76975L22.9062 1.82773C22.9462 1.82773 22.9862 1.85924 22.9962 1.90126C23.0063 1.94328 22.9962 1.98529 22.9662 2.01681L22.1208 2.73628C21.83 2.9838 21.7055 3.37539 21.8001 3.74542L22.0858 4.86345C22.0958 4.90546 22.0858 4.94748 22.0457 4.97899C22.0427 4.9811 22.0395 4.9831 22.0361 4.98497C21.9732 5.01977 21.9056 4.95868 21.846 4.9184L21.0647 4.39066C20.7265 4.16224 20.2834 4.16224 19.9452 4.39066L19.1211 4.94731C19.0899 4.96837 19.0618 5 19.0241 5Z" fill="#3EA1C7"/>
<path d="M11.8675 6.90448C11.8581 6.90448 11.8487 6.89956 11.8393 6.89464C11.8253 6.88479 11.8159 6.86017 11.8206 6.84048L11.8724 6.6377C11.967 6.26766 11.8425 5.87608 11.5516 5.62855L11.4548 5.54611C11.4236 5.5196 11.3797 5.49186 11.3891 5.45206C11.3938 5.43237 11.4126 5.4176 11.4313 5.4176L11.5709 5.40984C11.97 5.38766 12.3175 5.13 12.4547 4.75461L12.4949 4.64452C12.508 4.60858 12.5233 4.56091 12.5615 4.56091C12.5803 4.56091 12.5991 4.57568 12.6038 4.59045L12.6637 4.75461C12.8009 5.13 13.1484 5.38766 13.5475 5.40984L13.6871 5.4176C13.7058 5.4176 13.7246 5.43237 13.7293 5.45206C13.734 5.47176 13.7293 5.49145 13.7152 5.50622L13.5714 5.62855C13.2806 5.87608 13.1561 6.26766 13.2507 6.6377L13.3025 6.84048C13.3072 6.86017 13.3025 6.87987 13.2838 6.89464C13.2532 6.916 13.2166 6.88412 13.1857 6.86327L13.1213 6.81974C12.7831 6.59131 12.34 6.59131 12.0018 6.81974L11.9129 6.87979C11.8983 6.88966 11.8851 6.90448 11.8675 6.90448Z" fill="#3EA1C7"/>
<path d="M27.7522 6.45299C27.7375 6.45299 27.7228 6.44527 27.7081 6.43756C27.6861 6.42213 27.6714 6.38355 27.6787 6.35269L27.8475 5.6921C27.9421 5.32206 27.8176 4.93048 27.5268 4.68295L27.1055 4.32444C27.0567 4.28289 26.9878 4.23942 27.0027 4.17706C27.01 4.1462 27.0394 4.12305 27.0688 4.12305L27.6604 4.09017C28.0594 4.06799 28.4069 3.81033 28.5441 3.43494L28.7354 2.91165C28.7559 2.85534 28.7798 2.78064 28.8398 2.78064C28.8692 2.78064 28.8986 2.80378 28.9059 2.82693L29.1281 3.43494C29.2653 3.81033 29.6128 4.06799 30.0119 4.09017L30.6035 4.12305C30.6329 4.12305 30.6622 4.1462 30.6696 4.17706C30.6769 4.20792 30.6696 4.23878 30.6475 4.26192L30.1528 4.68295C29.862 4.93048 29.7375 5.32206 29.8321 5.6921L30.0009 6.35269C30.0082 6.38355 30.0009 6.41441 29.9715 6.43756C29.9237 6.47103 29.8662 6.42108 29.8179 6.3884L29.3995 6.10584C29.0613 5.87741 28.6183 5.87741 28.2801 6.10583L27.8234 6.41429C27.8005 6.42976 27.7798 6.45299 27.7522 6.45299Z" fill="#3EA1C7"/>
<g filter="url(#filter0_di_1484_602)">
<circle cx="21.0001" cy="24.1734" r="15.9" fill="url(#paint1_linear_1484_602)" stroke="white" stroke-linejoin="round"/>
<circle opacity="0.2" cx="25.8315" cy="29.1735" r="1" fill="white"/>
</g>
<path d="M13.176 25.656H14.888V27H11.4V21.336H13.176V25.656ZM17.5909 27.056C17.1375 27.056 16.7295 26.9627 16.3669 26.776C16.0042 26.5893 15.7189 26.3227 15.5109 25.976C15.3082 25.624 15.2069 25.2133 15.2069 24.744C15.2069 24.2747 15.3082 23.8667 15.5109 23.52C15.7189 23.168 16.0042 22.8987 16.3669 22.712C16.7295 22.5253 17.1375 22.432 17.5909 22.432C18.0442 22.432 18.4522 22.5253 18.8149 22.712C19.1775 22.8987 19.4602 23.168 19.6629 23.52C19.8709 23.8667 19.9749 24.2747 19.9749 24.744C19.9749 25.2133 19.8709 25.624 19.6629 25.976C19.4602 26.3227 19.1775 26.5893 18.8149 26.776C18.4522 26.9627 18.0442 27.056 17.5909 27.056ZM17.5909 25.52C17.7562 25.52 17.8949 25.456 18.0069 25.328C18.1189 25.1947 18.1749 25 18.1749 24.744C18.1749 24.488 18.1189 24.296 18.0069 24.168C17.8949 24.0347 17.7562 23.968 17.5909 23.968C17.4255 23.968 17.2869 24.0347 17.1749 24.168C17.0629 24.296 17.0069 24.488 17.0069 24.744C17.0069 25 17.0602 25.1947 17.1669 25.328C17.2789 25.456 17.4202 25.52 17.5909 25.52ZM22.1568 22.432C22.4501 22.432 22.7035 22.4933 22.9168 22.616C23.1301 22.7333 23.2928 22.896 23.4048 23.104V22.488H25.1728V26.92C25.1728 27.3413 25.0955 27.7253 24.9408 28.072C24.7861 28.4187 24.5355 28.696 24.1888 28.904C23.8475 29.112 23.4075 29.216 22.8688 29.216C22.1435 29.216 21.5675 29.0453 21.1408 28.704C20.7195 28.368 20.4795 27.9093 20.4208 27.328H22.1648C22.2128 27.5627 22.4048 27.68 22.7408 27.68C22.9488 27.68 23.1115 27.6267 23.2288 27.52C23.3461 27.4133 23.4048 27.2133 23.4048 26.92V26.384C23.2928 26.592 23.1301 26.7573 22.9168 26.88C22.7035 26.9973 22.4501 27.056 22.1568 27.056C21.8048 27.056 21.4875 26.9653 21.2048 26.784C20.9221 26.5973 20.6981 26.3307 20.5328 25.984C20.3728 25.632 20.2928 25.2187 20.2928 24.744C20.2928 24.2693 20.3728 23.8587 20.5328 23.512C20.6981 23.16 20.9221 22.8933 21.2048 22.712C21.4875 22.5253 21.8048 22.432 22.1568 22.432ZM23.4048 24.744C23.4048 24.504 23.3435 24.3173 23.2208 24.184C23.0981 24.0507 22.9408 23.984 22.7488 23.984C22.5568 23.984 22.3995 24.0507 22.2768 24.184C22.1541 24.3173 22.0928 24.504 22.0928 24.744C22.0928 24.984 22.1541 25.1707 22.2768 25.304C22.3995 25.4373 22.5568 25.504 22.7488 25.504C22.9408 25.504 23.0981 25.4373 23.2208 25.304C23.3435 25.1707 23.4048 24.984 23.4048 24.744ZM28.1143 27.056C27.661 27.056 27.253 26.9627 26.8903 26.776C26.5276 26.5893 26.2423 26.3227 26.0343 25.976C25.8316 25.624 25.7303 25.2133 25.7303 24.744C25.7303 24.2747 25.8316 23.8667 26.0343 23.52C26.2423 23.168 26.5276 22.8987 26.8903 22.712C27.253 22.5253 27.661 22.432 28.1143 22.432C28.5676 22.432 28.9756 22.5253 29.3383 22.712C29.701 22.8987 29.9836 23.168 30.1863 23.52C30.3943 23.8667 30.4983 24.2747 30.4983 24.744C30.4983 25.2133 30.3943 25.624 30.1863 25.976C29.9836 26.3227 29.701 26.5893 29.3383 26.776C28.9756 26.9627 28.5676 27.056 28.1143 27.056ZM28.1143 25.52C28.2796 25.52 28.4183 25.456 28.5303 25.328C28.6423 25.1947 28.6983 25 28.6983 24.744C28.6983 24.488 28.6423 24.296 28.5303 24.168C28.4183 24.0347 28.2796 23.968 28.1143 23.968C27.949 23.968 27.8103 24.0347 27.6983 24.168C27.5863 24.296 27.5303 24.488 27.5303 24.744C27.5303 25 27.5836 25.1947 27.6903 25.328C27.8023 25.456 27.9436 25.52 28.1143 25.52Z" fill="white"/>
<defs>
<filter id="filter0_di_1484_602" x="0.600098" y="7.77344" width="40.8" height="40.8" filterUnits="userSpaceOnUse" color-interpolation-filters="sRGB">
<feFlood flood-opacity="0" result="BackgroundImageFix"/>
<feColorMatrix in="SourceAlpha" type="matrix" values="0 0 0 0 0 0 0 0 0 0 0 0 0 0 0 0 0 0 127 0" result="hardAlpha"/>
<feOffset dy="4"/>
<feGaussianBlur stdDeviation="2"/>
<feComposite in2="hardAlpha" operator="out"/>
<feColorMatrix type="matrix" values="0 0 0 0 0.388235 0 0 0 0 0.356863 0 0 0 0 1 0 0 0 0.25 0"/>
<feBlend mode="normal" in2="BackgroundImageFix" result="effect1_dropShadow_1484_602"/>
<feBlend mode="normal" in="SourceGraphic" in2="effect1_dropShadow_1484_602" result="shape"/>
<feColorMatrix in="SourceAlpha" type="matrix" values="0 0 0 0 0 0 0 0 0 0 0 0 0 0 0 0 0 0 127 0" result="hardAlpha"/>
<feOffset dy="4"/>
<feGaussianBlur stdDeviation="2"/>
<feComposite in2="hardAlpha" operator="arithmetic" k2="-1" k3="1"/>
<feColorMatrix type="matrix" values="0 0 0 0 0.388235 0 0 0 0 0.356863 0 0 0 0 1 0 0 0 0.25 0"/>
<feBlend mode="normal" in2="shape" result="effect2_innerShadow_1484_602"/>
</filter>
<linearGradient id="paint0_linear_1484_602" x1="45.0561" y1="82.0504" x2="-11.5923" y2="65.4543" gradientUnits="userSpaceOnUse">
<stop offset="0.0146464" stop-color="#13F287"/>
<stop offset="1" stop-color="#635BFF"/>
</linearGradient>
<linearGradient id="paint1_linear_1484_602" x1="42.9179" y1="76.9057" x2="-8.69507" y2="61.7848" gradientUnits="userSpaceOnUse">
<stop offset="0.0146464" stop-color="#13F287"/>
<stop offset="1" stop-color="#635BFF"/>
</linearGradient>
</defs>
</svg>
